<?xml version="1.0" encoding="UTF-8"?><svg id="_レイヤー_1" xmlns="http://www.w3.org/2000/svg" viewBox="0 0 796.6 364.47"><defs><style>.cls-1,.cls-2{fill:#14120d;}.cls-3{fill:none;stroke:#fff;stroke-width:.5px;}.cls-3,.cls-2{stroke-miterlimit:10;}.cls-2{stroke:#000;stroke-width:.25px;}.cls-4{fill:#7c3d20;}</style></defs><path class="cls-2" d="M45.31,200.32c-8.59-4.74-15.18-11.15-19.76-19.2-4.59-8.05-6.88-16.88-6.88-26.48,0-10.35,2.58-19.36,7.76-27.04,5.17-7.68,12.27-13.57,21.28-17.68,9.01-4.1,19.12-6.16,30.32-6.16,5.87,0,11.25.59,16.16,1.76,4.9,1.17,9.06,2.83,12.48,4.96.75.54,1.17.94,1.28,1.2.1.27.21,1.04.32,2.32l1.92,17.92c0,.32-.29.54-.88.64-.59.11-.94,0-1.04-.32-2.35-8.85-6.06-15.41-11.12-19.68-5.07-4.27-12.19-6.4-21.36-6.4s-16.8,1.9-23.84,5.68c-7.04,3.79-12.59,9.18-16.64,16.16-4.05,6.99-6.08,15.17-6.08,24.56,0,8.85,1.84,17.28,5.52,25.28s9.33,14.56,16.96,19.68c7.62,5.12,17.04,7.68,28.24,7.68,7.89,0,13.46-1.52,16.72-4.56s4.88-8.08,4.88-15.12c0-5.54-.38-9.41-1.12-11.6-.75-2.19-2.35-3.65-4.8-4.4-2.46-.75-6.72-1.12-12.8-1.12-.64,0-.96-.42-.96-1.28,0-.32.08-.61.24-.88.16-.27.34-.4.56-.4,8.21.54,14.83.8,19.84.8s9.92-.16,15.36-.48c.21,0,.4.13.56.4.16.27.24.51.24.72,0,.75-.27,1.12-.8,1.12-2.78-.1-4.75.24-5.92,1.04-1.18.8-1.92,2.43-2.24,4.88-.32,2.46-.48,6.72-.48,12.8,0,4.8.19,8.21.56,10.24.37,2.03.56,3.31.56,3.84,0,.64-.11,1.07-.32,1.28-.21.21-.7.43-1.44.64-12.91,2.88-23.89,4.32-32.96,4.32-11.63,0-21.73-2.37-30.32-7.12Z"/><path class="cls-2" d="M180.59,196.88c.32,0,.61.19.88.56.26.38.29.72.08,1.04-7.04,5.98-14.67,8.96-22.88,8.96-6.08,0-11.26-1.44-15.52-4.32-4.27-2.88-7.5-6.64-9.68-11.28-2.19-4.64-3.28-9.68-3.28-15.12,0-6.29,1.49-12.08,4.48-17.36,2.98-5.28,7.01-9.44,12.08-12.48,5.06-3.04,10.58-4.56,16.56-4.56s10.48,1.63,13.52,4.88c3.04,3.25,4.56,7.71,4.56,13.36,0,1.5-.13,2.54-.4,3.12-.27.59-.77.88-1.52.88l-39.84.16c-.22,2.56-.32,4.64-.32,6.24,0,9.28,2.18,16.83,6.56,22.64,4.37,5.81,10.51,8.72,18.4,8.72,3.3,0,6.13-.45,8.48-1.36,2.34-.9,4.9-2.27,7.68-4.08h.16ZM146.27,150.08c-3.15,3.04-5.25,7.28-6.32,12.72l32.16-.64c.11-5.54-1.09-9.71-3.6-12.48-2.51-2.77-5.95-4.16-10.32-4.16-4.8,0-8.78,1.52-11.92,4.56Z"/><path class="cls-2" d="M238.35,198c.32,0,.58.24.8.72.21.48.16.83-.16,1.04-3.95,2.77-7.42,4.75-10.4,5.92-2.99,1.17-6.08,1.76-9.28,1.76-4.38,0-7.95-.99-10.72-2.96-2.77-1.97-4.16-5.25-4.16-9.84v-38.08c0-2.88-.19-4.88-.56-6-.38-1.12-1.09-1.87-2.16-2.24-1.07-.37-2.93-.56-5.6-.56-.32,0-.48-.32-.48-.96s.16-.96.48-.96c4.05,0,7.33-1.12,9.84-3.36,2.5-2.24,3.76-5.06,3.76-8.48,0-.32.43-.48,1.28-.48.75,0,1.12.16,1.12.48v11.68c7.25-.1,14.77-.64,22.56-1.6.32,0,.58.35.8,1.04.21.69.32,1.57.32,2.64,0,.85-.16,1.71-.48,2.56-.32.85-.7,1.23-1.12,1.12-6.4-1.6-13.76-2.4-22.08-2.4v40.16c0,8.85,4.32,13.28,12.96,13.28,4.91,0,9.22-1.44,12.96-4.32l.32-.16Z"/><path class="cls-1" d="M61.27,354.87c.32,0,.58.24.8.72.21.48.16.83-.16,1.04-3.95,2.77-7.41,4.75-10.4,5.92-2.99,1.17-6.08,1.76-9.28,1.76-4.38,0-7.95-.99-10.72-2.96s-4.16-5.25-4.16-9.84v-38.08c0-2.88-.19-4.88-.56-6-.38-1.12-1.1-1.87-2.16-2.24-1.07-.37-2.94-.56-5.6-.56-.32,0-.48-.32-.48-.96s.16-.96.48-.96c4.05,0,7.33-1.12,9.84-3.36,2.5-2.24,3.76-5.07,3.76-8.48,0-.32.43-.48,1.28-.48.75,0,1.12.16,1.12.48v11.68c7.25-.11,14.77-.64,22.56-1.6.32,0,.59.35.8,1.04.21.7.32,1.58.32,2.64,0,.85-.16,1.71-.48,2.56-.32.86-.7,1.23-1.12,1.12-6.4-1.6-13.76-2.4-22.08-2.4v40.16c0,8.86,4.32,13.28,12.96,13.28,4.91,0,9.22-1.44,12.96-4.32l.32-.16Z"/><path class="cls-1" d="M86.87,359.91c-4.69-3.04-8.32-7.14-10.88-12.32-2.56-5.17-3.84-10.8-3.84-16.88,0-6.93,1.68-12.83,5.04-17.68,3.36-4.85,7.62-8.48,12.8-10.88,5.17-2.4,10.48-3.6,15.92-3.6,6.19,0,11.6,1.55,16.24,4.64,4.64,3.09,8.21,7.17,10.72,12.24,2.5,5.07,3.76,10.43,3.76,16.08,0,6.62-1.52,12.43-4.56,17.44-3.04,5.02-7.12,8.86-12.24,11.52-5.12,2.67-10.72,4-16.8,4s-11.47-1.52-16.16-4.56ZM122.07,355.35c3.52-4.16,5.28-10.72,5.28-19.68,0-6.4-1.12-12.19-3.36-17.36-2.24-5.17-5.39-9.25-9.44-12.24-4.06-2.98-8.7-4.48-13.92-4.48-6.08,0-10.83,2.11-14.24,6.32-3.42,4.22-5.12,10.27-5.12,18.16,0,6.4,1.12,12.29,3.36,17.68,2.24,5.39,5.33,9.71,9.28,12.96,3.95,3.25,8.48,4.88,13.6,4.88,6.18,0,11.04-2.08,14.56-6.24Z"/><path class="cls-1" d="M219.99,353.59c.42,0,.72.24.88.72.16.48.02.83-.4,1.04l-17.92,8.32-.64.16c-.96,0-1.95-1.2-2.96-3.6-1.02-2.4-1.52-5.46-1.52-9.2v-1.44c-4.38,4.91-8.7,8.46-12.96,10.64-4.27,2.19-8.64,3.28-13.12,3.28-5.23,0-9.31-1.65-12.24-4.96-2.93-3.3-4.4-8.16-4.4-14.56v-24.8c0-4.37-.35-7.49-1.04-9.36-.7-1.87-1.9-2.8-3.6-2.8-1.6,0-3.52.54-5.76,1.6h-.32c-.43,0-.72-.27-.88-.8-.16-.53-.03-.85.4-.96l16.8-7.52.64-.16c.21,0,.48.11.8.32.32.21.48.48.48.8v38.88c0,6.4,1.12,11.15,3.36,14.24,2.24,3.09,5.6,4.64,10.08,4.64,3.73,0,7.52-.98,11.36-2.96,3.84-1.97,7.3-4.72,10.4-8.24v-27.68c0-4.37-.35-7.49-1.04-9.36-.7-1.87-1.95-2.8-3.76-2.8-1.6,0-3.52.54-5.76,1.6h-.32c-.43,0-.7-.27-.8-.8-.11-.53.05-.85.48-.96l16.8-7.52.48-.16c.32,0,.61.11.88.32.27.21.4.48.4.8v45.28c0,3.63.45,6.27,1.36,7.92.91,1.66,2.43,2.48,4.56,2.48,1.06,0,2.37-.24,3.92-.72,1.54-.48,3.22-1.04,5.04-1.68h.32Z"/><path class="cls-1" d="M240.54,359.75c-4.64-3.04-8.08-6.96-10.32-11.76-2.24-4.8-3.36-9.86-3.36-15.2,0-6.83,1.68-12.77,5.04-17.84,3.36-5.06,7.68-8.96,12.96-11.68s10.69-4.08,16.24-4.08c4.58,0,8.77.91,12.56,2.72,3.79,1.82,5.68,3.95,5.68,6.4,0,1.28-.43,2.38-1.28,3.28-.86.91-1.98,1.36-3.36,1.36-2.46,0-4.59-1.49-6.4-4.48-1.39-2.03-3.02-3.54-4.88-4.56-1.87-1.01-4.35-1.52-7.44-1.52-6.4,0-11.33,2.32-14.8,6.96-3.47,4.64-5.2,10.91-5.2,18.8,0,8.96,2.29,16.4,6.88,22.32,4.58,5.92,11.41,8.88,20.48,8.88,6.82,0,12.32-1.87,16.48-5.6h.32c.32,0,.61.16.88.48.26.32.24.59-.08.8-3.63,3.2-7.31,5.55-11.04,7.04-3.74,1.49-7.79,2.24-12.16,2.24-6.83,0-12.56-1.52-17.2-4.56Z"/><path class="cls-1" d="M362.22,361.43c0,.64-.11.96-.32.96-2.46,0-4.43-.05-5.92-.16l-8.32-.16-8.48.16c-1.39.11-3.31.16-5.76.16-.32,0-.48-.32-.48-.96s.16-.96.48-.96c3.09,0,5.33-.26,6.72-.8,1.38-.53,2.34-1.57,2.88-3.12.53-1.54.8-3.92.8-7.12v-26.08c0-6.5-1.23-11.3-3.68-14.4-2.46-3.09-6.24-4.64-11.36-4.64-3.42,0-6.93.99-10.56,2.96-3.63,1.98-6.94,4.67-9.92,8.08v34.08c0,3.2.26,5.58.8,7.12.53,1.55,1.52,2.59,2.96,3.12,1.44.54,3.71.8,6.8.8.21,0,.32.32.32.96s-.11.96-.32.96c-2.46,0-4.43-.05-5.92-.16l-8.32-.16-8.48.16c-1.39.11-3.31.16-5.76.16-.32,0-.48-.32-.48-.96s.16-.96.48-.96c3.09,0,5.33-.26,6.72-.8,1.38-.53,2.34-1.57,2.88-3.12.53-1.54.8-3.92.8-7.12v-83.04c0-3.95-.38-6.77-1.12-8.48-.75-1.7-2.08-2.56-4-2.56-1.81,0-4.38.8-7.68,2.4h-.32c-.43,0-.72-.27-.88-.8-.16-.53-.03-.85.4-.96l19.68-9.6h.32c.75,0,1.12.38,1.12,1.12v65.44c4.26-4.9,8.4-8.45,12.4-10.64,4-2.18,8.13-3.28,12.4-3.28,5.87,0,10.37,1.63,13.52,4.88,3.15,3.26,4.72,8.08,4.72,14.48v31.04c0,3.2.26,5.58.8,7.12.53,1.55,1.52,2.59,2.96,3.12,1.44.54,3.71.8,6.8.8.21,0,.32.32.32.96Z"/><path class="cls-3" d="M18.99,194.68c-1.15-1.15-1.72-2.82-1.72-5.01,0-1.96.57-3.51,1.72-4.66,1.14-1.15,2.75-1.73,4.82-1.73s3.65.58,4.74,1.73c1.09,1.15,1.63,2.71,1.63,4.66,0,2.19-.55,3.86-1.63,5.01-1.09,1.15-2.67,1.73-4.74,1.73s-3.68-.58-4.82-1.73Z"/><path class="cls-4" d="M9.59,285.63c-.87-1.09-1.31-3.02-1.31-5.79s.38-5.81,1.15-9.5l6.7-35.93c.33-1.96.49-3.57.49-4.84,0-1.84-.3-3.25-.9-4.23-.6-.98-1.39-1.47-2.37-1.47-1.31,0-3.03.69-5.15,2.07-2.13,1.38-4.33,3.4-6.62,6.05-.11.12-.27.17-.49.17-.33,0-.63-.2-.9-.61-.27-.4-.24-.72.08-.95,3.7-4.49,7.08-7.8,10.14-9.93,3.05-2.13,5.89-3.2,8.5-3.2,1.85,0,3.19.55,4.01,1.64.82,1.1,1.23,2.91,1.23,5.44s-.38,5.93-1.14,9.85l-6.54,35.93c-.33,1.84-.49,3.51-.49,5.01,0,3.69,1.09,5.53,3.27,5.53,1.31,0,3-.72,5.07-2.16,2.07-1.44,4.25-3.42,6.54-5.96.11-.11.27-.17.49-.17.43,0,.76.2.98.61.22.4.16.72-.16.95-7.19,8.75-13.35,13.13-18.47,13.13-1.85,0-3.21-.55-4.09-1.64ZM18.99,194.68c-1.15-1.15-1.72-2.82-1.72-5.01,0-1.96.57-3.51,1.72-4.66,1.14-1.15,2.75-1.73,4.82-1.73s3.65.58,4.74,1.73c1.09,1.15,1.63,2.71,1.63,4.66,0,2.19-.55,3.86-1.63,5.01-1.09,1.15-2.67,1.73-4.74,1.73s-3.68-.58-4.82-1.73Z"/><path class="cls-4" d="M108.49,272.07c.33,0,.63.2.9.6.27.4.25.78-.08,1.12-3.82,4.61-7.17,8.01-10.05,10.19-2.89,2.19-5.64,3.28-8.26,3.28-1.85,0-3.16-.55-3.92-1.64-.76-1.09-1.14-2.96-1.14-5.61,0-2.3.33-5.53.98-9.67l4.74-27.47c.76-3.57,1.14-6.85,1.14-9.85,0-6.91-2.51-10.37-7.52-10.37-3.71,0-7.55,2.48-11.53,7.43-3.98,4.95-7.74,12.12-11.28,21.51-3.54,9.39-6.4,20.41-8.58,33.08-.11.69-.55,1.27-1.31,1.73-.76.46-1.75.69-2.94.69-1.42,0-2.34-.09-2.78-.26-.44-.17-.65-.43-.65-.78l.65-3.63c.22-.8.52-2.19.9-4.15.38-1.96.68-3.74.9-5.36l6.7-38.52c.33-1.96.49-3.57.49-4.84,0-3.8-1.09-5.7-3.27-5.7-1.31,0-3.02.69-5.15,2.07-2.13,1.38-4.33,3.4-6.62,6.05-.11.12-.27.17-.49.17-.33,0-.63-.2-.9-.61-.27-.4-.25-.72.08-.95,7.19-8.75,13.46-13.13,18.8-13.13,1.74,0,3,.55,3.76,1.64.76,1.1,1.14,2.91,1.14,5.44s-.33,5.7-.98,9.85l-3.76,22.97c3.92-12.67,8.64-22.6,14.14-29.8,5.5-7.2,11.25-10.8,17.25-10.8,3.6,0,6.24,1.01,7.93,3.02,1.69,2.02,2.53,5.16,2.53,9.41,0,2.31-.38,5.76-1.14,10.37l-5.39,30.75c-.33,1.84-.49,3.4-.49,4.66,0,3.92,1.14,5.87,3.43,5.87s6.16-2.82,11.28-8.46c.22-.23.38-.34.49-.34Z"/></svg>